<?xml version="1.0" standalone="no"?>
<!DOCTYPE svg PUBLIC "-//W3C//DTD SVG 20010904//EN"
        "http://www.w3.org/TR/2001/REC-SVG-20010904/DTD/svg10.dtd">
<svg version="1.0" xmlns="http://www.w3.org/2000/svg"
     width="1024.000000pt" height="1024.000000pt" viewBox="0 0 1024.000000 1024.000000"
     preserveAspectRatio="xMidYMid meet">

    <g transform="translate(0.000000,1024.000000) scale(0.100000,-0.100000)">
        <path fill="#1964b7" d="M1632 10224 c-864 -110 -1531 -804 -1611 -1674 -15 -160 -15 -6700 0
-6860 80 -872 747 -1564 1615 -1675 163 -20 6815 -20 6978 0 868 111 1535 803
1615 1675 15 160 15 6700 0 6860 -82 894 -782 1598 -1670 1679 -187 17 -6792
13 -6927 -5z"/>
        <path fill="#ffffff" d="M5633 7720 c758 -113 1292 -533 1452 -1142 24 -93 40 -198 49
-315 l4 -63 -524 0 -524 0 -5 28 c-38 202 -111 332 -238 428 -177 133 -365
180 -681 171 -215 -6 -303 -24 -444 -93 -182 -88 -288 -224 -314 -402 -34
-243 80 -419 357 -552 136 -65 246 -99 610 -186 463 -111 471 -113 590 -151
666 -213 1071 -574 1195 -1066 55 -217 58 -478 9 -703 -136 -630 -666 -1051
-1470 -1168 -294 -43 -694 -41 -997 5 -479 73 -851 245 -1122 520 -199 202
-325 440 -388 739 -23 105 -42 262 -42 340 l0 50 529 0 528 0 6 -62 c28 -290
216 -522 508 -629 159 -58 252 -72 474 -73 219 -1 296 10 453 64 224 76 399
247 441 430 16 67 13 199 -5 261 -38 129 -146 239 -318 323 -159 78 -294 120
-793 245 -243 61 -500 131 -572 156 -535 183 -889 464 -1030 817 -90 223 -113
530 -61 798 95 495 462 891 1024 1107 171 65 425 121 653 143 143 14 489 3
646 -20"/>
    </g>
</svg>